<?xml version="1.0" standalone="no"?>
<!DOCTYPE svg PUBLIC "-//W3C//DTD SVG 20010904//EN"
 "http://www.w3.org/TR/2001/REC-SVG-20010904/DTD/svg10.dtd">
<svg version="1.0" xmlns="http://www.w3.org/2000/svg"
 width="1080.000000pt" height="1080.000000pt" viewBox="0 0 1080.000000 1080.000000"
 preserveAspectRatio="xMidYMid meet">

<g transform="translate(0.000000,1080.000000) scale(0.100000,-0.100000)"
fill="#000000" stroke="none">
<path d="M8340 8829 c-32 -13 -61 -47 -138 -166 -15 -23 -56 -75 -92 -117 -36
-41 -77 -91 -91 -110 -15 -20 -50 -61 -78 -92 -29 -31 -96 -111 -149 -178 -53
-67 -105 -130 -116 -141 -10 -11 -31 -37 -46 -58 -16 -21 -53 -66 -84 -100
-77 -86 -188 -218 -206 -243 -65 -93 -503 -564 -525 -564 -8 0 -29 21 -48 48
-61 81 -177 188 -324 297 -81 61 -320 181 -428 216 -55 18 -349 80 -444 95
-209 31 -630 1 -726 -52 -11 -7 -46 -19 -78 -28 -33 -10 -109 -42 -170 -72
-61 -29 -116 -54 -123 -54 -6 0 -17 -7 -24 -14 -6 -8 -33 -22 -60 -31 -27 -9
-54 -22 -60 -30 -6 -8 -35 -27 -63 -43 -51 -29 -225 -194 -320 -302 -35 -41
-51 -52 -61 -45 -93 70 -116 88 -116 96 0 6 -26 36 -57 68 -32 32 -83 87 -113
122 -30 35 -77 89 -105 120 -90 102 -129 149 -154 187 -15 20 -30 39 -34 41
-5 2 -52 57 -105 123 -53 66 -114 141 -135 166 -21 26 -75 94 -120 151 -45 57
-104 130 -132 161 -94 108 -132 155 -148 187 -9 17 -27 40 -40 50 -13 10 -30
29 -37 42 -7 13 -38 49 -70 81 -31 31 -61 63 -66 72 -5 9 -26 35 -48 58 -31
34 -47 44 -81 48 -34 3 -47 0 -64 -17 -19 -19 -21 -32 -21 -158 0 -214 33
-499 65 -561 8 -15 28 -56 44 -92 33 -72 83 -151 119 -190 13 -14 34 -41 47
-60 13 -19 45 -57 71 -85 26 -27 58 -68 72 -90 14 -22 31 -44 38 -50 21 -18
138 -156 170 -202 17 -25 59 -75 92 -111 34 -37 90 -103 126 -147 36 -44 81
-98 100 -120 19 -22 61 -71 93 -109 97 -116 272 -308 334 -366 l58 -55 2 -222
c2 -122 0 -225 -3 -228 -9 -10 -37 6 -43 25 -3 11 -15 22 -25 25 -11 3 -39 25
-63 48 -24 23 -69 62 -101 86 -32 25 -76 64 -99 87 -43 42 -94 74 -121 74 -8
0 -28 -12 -45 -26 -27 -22 -31 -32 -31 -74 0 -51 28 -190 60 -300 38 -130 50
-177 50 -193 0 -25 48 -75 84 -87 40 -13 51 -33 34 -63 -22 -43 -55 -48 -95
-17 -32 25 -65 25 -117 1 -35 -17 -134 -55 -369 -142 -82 -30 -97 -44 -97 -90
0 -71 45 -110 170 -143 68 -18 116 -34 155 -51 17 -7 65 -23 108 -35 101 -28
136 -22 178 30 19 23 37 36 46 33 17 -7 56 -80 50 -96 -2 -6 -20 -15 -42 -21
-55 -16 -76 -50 -86 -143 -5 -43 -14 -116 -19 -163 -6 -47 -13 -131 -17 -187
l-6 -102 31 -30 c56 -56 77 -46 240 113 89 87 94 90 108 72 7 -11 14 -28 14
-37 0 -9 13 -47 29 -84 16 -37 26 -76 24 -86 -3 -11 -26 -34 -52 -53 -25 -19
-57 -46 -71 -61 -13 -14 -44 -35 -68 -45 -24 -11 -74 -50 -111 -87 -37 -37
-87 -79 -111 -93 -24 -14 -60 -42 -80 -62 -19 -21 -39 -38 -43 -38 -8 0 -174
-133 -222 -178 -16 -16 -46 -38 -65 -50 -20 -11 -47 -33 -60 -47 -14 -15 -43
-36 -66 -46 -23 -11 -68 -46 -101 -78 -33 -33 -80 -69 -104 -81 -43 -22 -65
-38 -144 -106 -128 -109 -161 -140 -174 -163 -33 -60 -8 -233 40 -277 11 -10
28 -37 38 -60 12 -25 31 -49 48 -58 16 -8 36 -22 43 -31 24 -28 88 -55 132
-55 74 0 111 17 179 81 35 33 91 77 124 97 33 19 77 49 97 66 58 49 91 72 124
89 16 8 39 28 50 43 27 38 40 49 116 99 100 67 241 172 369 275 45 36 100 79
123 95 23 17 49 36 57 42 8 7 42 35 76 62 34 28 67 59 75 69 24 34 139 124
151 118 7 -3 37 -26 67 -51 30 -25 86 -66 124 -93 74 -50 64 -48 252 -52 18 0
43 -71 49 -137 3 -34 11 -81 19 -105 8 -24 17 -68 21 -98 3 -30 16 -77 27
-105 26 -63 120 -162 162 -171 17 -4 56 -14 86 -24 38 -12 92 -18 174 -19 100
-2 130 -6 190 -28 107 -39 207 -53 295 -42 41 5 77 6 80 3 10 -10 -41 -46
-117 -81 -58 -27 -76 -41 -89 -68 -12 -25 -40 -49 -99 -85 -87 -53 -113 -78
-134 -130 -11 -27 -11 -37 3 -64 25 -53 65 -55 152 -10 38 20 83 41 100 46 16
4 119 8 227 8 l197 0 31 40 c34 43 61 50 94 25 26 -19 69 -19 108 1 17 9 58
21 92 28 56 12 62 15 73 47 7 19 12 51 12 71 1 21 12 61 25 90 13 29 29 70 36
91 15 47 35 48 50 2 6 -19 20 -40 30 -45 34 -18 87 -12 118 15 44 37 126 75
161 75 39 0 78 19 110 54 14 14 32 26 41 26 25 0 141 48 162 66 10 10 23 36
28 58 6 23 15 60 21 83 7 26 27 58 51 83 33 34 39 46 35 69 -8 37 -2 42 36 29
31 -11 90 -56 152 -118 17 -16 55 -46 86 -67 74 -49 144 -104 226 -176 36 -32
96 -76 132 -97 36 -22 88 -62 116 -90 27 -27 54 -50 60 -50 6 0 37 -24 68 -53
114 -104 126 -110 229 -109 86 1 143 31 211 111 74 88 99 146 104 249 4 82 3
89 -22 127 -25 36 -135 128 -170 141 -8 3 -37 28 -65 55 -28 27 -63 55 -78 63
-15 8 -43 30 -62 49 -19 19 -64 53 -100 76 -35 23 -67 45 -70 49 -12 18 -141
122 -151 122 -5 0 -47 31 -92 68 -45 38 -93 75 -106 82 -14 7 -54 37 -90 66
-119 97 -129 104 -140 104 -6 0 -42 30 -80 68 -56 55 -70 76 -80 117 -15 57
-42 135 -77 216 -25 60 -32 133 -12 145 6 4 21 -4 34 -19 27 -32 157 -146 192
-169 37 -25 69 -22 97 7 21 20 25 34 25 81 0 31 -4 73 -9 93 -6 20 -17 74 -26
121 -31 164 -66 284 -86 302 -11 10 -36 20 -55 24 -30 5 -34 10 -34 36 0 31
34 88 52 88 5 0 23 -11 40 -25 34 -29 88 -33 128 -10 14 8 34 14 44 15 11 0
38 9 60 19 71 34 150 61 178 61 15 0 42 6 60 14 18 8 53 20 77 27 69 21 91 43
91 93 0 64 -36 92 -145 115 -33 7 -70 17 -83 22 -12 5 -74 22 -137 39 -63 16
-129 37 -146 45 -44 23 -105 22 -140 -4 -35 -26 -41 -26 -66 2 -41 45 -34 77
17 77 41 0 67 37 84 120 9 41 23 104 31 140 31 142 55 276 55 312 0 33 -41 84
-74 92 -40 10 -66 -7 -190 -125 -65 -63 -125 -115 -132 -117 -10 -3 -14 7 -14
35 0 21 -5 92 -11 159 -7 72 -8 127 -3 137 5 8 38 46 74 84 36 37 103 111 149
163 46 52 93 103 104 113 11 10 38 41 59 69 21 28 77 94 125 146 49 52 104
111 123 132 56 62 132 149 209 240 39 47 92 109 118 137 25 29 53 64 62 77 9
13 43 60 76 104 33 44 82 116 108 159 27 43 68 107 92 143 23 36 52 80 64 98
24 38 40 147 45 312 2 63 7 174 11 245 7 112 6 135 -9 162 -25 50 -62 63 -116
42z m40 -161 c0 -35 -5 -142 -11 -238 -6 -96 -11 -184 -11 -194 1 -31 -75
-201 -122 -274 -201 -310 -467 -631 -1056 -1272 -48 -52 -116 -128 -151 -167
-68 -78 -89 -89 -89 -47 0 15 -9 58 -21 96 -17 58 -18 72 -7 86 27 34 361 411
459 518 57 62 375 423 435 494 12 14 70 82 130 152 241 279 344 407 343 425 0
15 -3 14 -17 -7 -9 -13 -75 -93 -147 -177 -71 -85 -143 -171 -160 -192 -33
-42 -348 -403 -429 -491 -28 -30 -96 -107 -151 -169 -55 -63 -105 -119 -110
-125 -6 -6 -44 -49 -85 -96 -178 -204 -276 -310 -285 -310 -6 0 -18 26 -27 58
-9 31 -26 81 -37 110 l-21 52 63 68 c35 37 96 103 137 147 41 44 81 87 89 96
9 8 43 46 76 84 33 37 65 73 70 79 6 6 53 61 105 121 52 61 105 121 118 135
12 14 80 94 150 179 70 84 161 192 202 240 42 47 91 106 110 131 38 49 162
200 238 291 26 31 80 102 121 158 41 55 78 101 83 101 4 0 8 -28 8 -62z
m-5990 -22 c60 -69 173 -202 257 -302 37 -44 138 -167 223 -273 85 -107 192
-239 238 -295 46 -55 98 -119 115 -140 198 -244 356 -425 528 -608 77 -80 139
-150 139 -154 0 -11 -62 -168 -70 -177 -15 -17 -333 315 -574 599 -32 38 -82
94 -110 124 -56 61 -188 216 -352 415 -120 145 -149 180 -258 308 -53 63 -78
101 -85 130 l-9 42 -1 -41 c-1 -45 9 -60 139 -213 36 -42 75 -87 86 -101 12
-14 115 -137 230 -275 227 -272 236 -282 309 -365 28 -31 95 -108 150 -171 55
-63 182 -198 283 -300 l184 -187 -21 -67 c-12 -37 -21 -75 -21 -85 0 -10 -5
-31 -11 -47 l-11 -28 -44 50 c-25 28 -87 100 -138 160 -52 61 -183 214 -292
342 -110 128 -237 278 -284 334 -47 56 -114 136 -150 178 -36 42 -83 98 -105
126 -22 27 -64 77 -94 110 -97 108 -208 294 -252 423 -11 31 -24 106 -29 166
-6 61 -14 149 -20 196 -12 101 -13 180 -2 179 4 0 27 -24 52 -53z m3130 -1022
c259 -29 352 -49 495 -106 281 -110 569 -312 689 -482 104 -146 181 -367 232
-661 55 -322 47 -519 -35 -811 -21 -77 -43 -159 -49 -184 -14 -59 -73 -161
-89 -155 -16 5 -16 -7 -2 -38 15 -34 -14 -91 -42 -84 -25 7 -24 -7 6 -95 49
-144 50 -255 4 -344 -23 -46 -96 -126 -150 -167 -71 -54 -133 -210 -168 -426
-16 -97 -26 -131 -46 -157 -14 -18 -25 -41 -25 -51 0 -11 -11 -34 -25 -53 -14
-19 -25 -39 -25 -44 0 -20 -15 -34 -42 -41 -21 -5 -27 -3 -33 14 -7 24 -53 51
-85 51 -32 0 -95 -36 -135 -77 -44 -45 -71 -95 -80 -148 -4 -22 -14 -51 -22
-64 -9 -13 -13 -38 -11 -58 4 -30 -7 -51 -68 -146 -145 -224 -158 -239 -234
-267 -52 -19 -73 -22 -143 -17 -45 3 -120 17 -167 32 -57 18 -124 29 -203 35
-251 19 -309 42 -364 147 -39 74 -50 119 -67 273 -17 144 -34 206 -58 204 -9
-1 -54 35 -100 80 -93 88 -102 108 -113 241 -9 113 -65 324 -65 247 0 -12 -2
-22 -5 -22 -2 0 -58 53 -122 118 -65 65 -153 144 -195 175 -109 80 -112 88
-102 266 9 170 8 208 -12 238 -9 15 -12 36 -8 61 5 33 1 44 -30 82 -19 25 -50
70 -67 100 -42 69 -42 113 0 238 17 51 31 108 31 126 0 23 13 50 45 92 24 32
44 66 44 74 0 10 -5 8 -16 -7 -35 -51 -63 -13 -83 112 -20 132 -23 261 -10
425 11 136 18 171 56 285 60 183 94 254 178 369 185 253 419 415 776 537 312
107 423 119 740 83z m1850 -1431 c0 -44 -51 -322 -72 -398 -14 -50 -21 -58
-54 -61 -35 -4 -72 -40 -85 -83 -10 -33 -7 -43 36 -126 26 -50 54 -98 63 -107
31 -36 100 -15 133 39 11 18 26 33 32 33 23 0 174 -41 302 -81 72 -22 136 -43
143 -45 16 -5 6 -24 -12 -24 -6 0 -101 -29 -210 -65 -198 -65 -236 -74 -236
-55 0 24 -53 60 -89 60 -51 0 -76 -21 -116 -98 -19 -37 -42 -79 -52 -94 -16
-26 -16 -29 0 -63 17 -36 79 -74 120 -75 10 0 21 -10 26 -23 11 -28 37 -137
45 -187 3 -19 10 -55 16 -80 16 -74 22 -140 13 -140 -10 0 -129 106 -243 217
-73 70 -73 71 -60 102 37 90 -51 175 -157 150 -58 -13 -92 6 -65 36 13 15 33
88 31 110 -7 68 0 85 44 104 62 27 81 53 81 111 0 41 -5 55 -29 80 -16 17 -40
33 -53 37 -28 7 -27 24 11 148 20 64 29 81 46 83 11 2 34 20 51 40 26 31 30
43 27 77 -3 22 -8 49 -11 60 -6 17 20 48 148 173 140 137 176 167 176 145z
m-4079 -44 c19 -17 94 -83 167 -147 72 -64 132 -122 132 -130 0 -7 -5 -22 -11
-33 -13 -25 -4 -66 21 -99 16 -22 29 -26 92 -30 70 -5 73 -6 76 -31 6 -48 -45
-220 -74 -250 -23 -24 -26 -34 -22 -74 6 -48 30 -85 57 -85 16 -1 62 -57 94
-116 15 -27 16 -37 7 -55 -10 -18 -8 -26 9 -50 12 -15 21 -33 21 -38 0 -23
-43 -32 -113 -27 -79 7 -91 2 -122 -50 -17 -30 -17 -34 -1 -84 l17 -53 -63
-66 c-176 -184 -234 -241 -244 -241 -14 0 -9 62 17 225 10 66 19 134 19 150 0
49 11 75 31 75 23 0 68 19 92 38 12 11 17 30 17 62 0 39 -7 57 -37 101 -59 83
-107 129 -135 129 -38 0 -91 -41 -102 -79 -8 -30 -12 -32 -40 -28 -70 10 -396
117 -399 131 -1 4 66 33 148 65 83 32 179 70 214 84 65 27 80 25 81 -10 0 -33
136 -59 160 -30 6 6 28 47 50 90 49 96 53 142 13 179 -34 31 -66 48 -91 48
-12 0 -24 11 -30 28 -22 56 -51 161 -70 257 -40 197 -40 197 19 144z m3489
-1039 c0 -5 -5 -10 -11 -10 -5 0 -7 5 -4 10 3 6 8 10 11 10 2 0 4 -4 4 -10z
m80 0 c0 -5 -4 -10 -10 -10 -5 0 -10 5 -10 10 0 6 5 10 10 10 6 0 10 -4 10
-10z m-73 -117 c-8 -9 -20 -12 -26 -8 -8 4 -4 13 11 25 26 21 39 6 15 -17z
m51 -20 c5 -10 17 -47 26 -82 10 -35 27 -80 38 -100 54 -97 103 -177 115 -189
7 -7 13 -23 12 -35 0 -21 -1 -21 -12 -4 -7 10 -29 41 -49 69 -21 27 -46 72
-55 99 -17 46 -33 64 -33 37 -1 -28 -18 21 -35 97 -9 44 -21 84 -26 90 -12 12
-12 35 1 35 5 0 13 -8 18 -17z m-49 -56 c0 -27 -2 -29 -9 -12 -12 28 -12 57 0
50 6 -3 10 -21 9 -38z m15 -73 c3 -9 6 -26 6 -40 0 -13 12 -74 26 -135 l26
-111 -21 -22 -22 -21 7 53 c6 44 4 52 -10 52 -12 0 -16 10 -16 38 0 47 -8 58
-27 34 -11 -15 -12 -13 -2 13 6 17 11 58 12 92 2 62 9 78 21 47z m-3069 -92
c-15 -71 71 -302 183 -487 137 -227 343 -430 487 -479 44 -16 53 -25 35 -36
-29 -19 -83 -10 -139 21 -67 38 -202 150 -254 210 -59 69 -149 191 -172 230
-11 20 -35 63 -53 95 -105 185 -158 393 -116 452 21 31 37 28 29 -6z m3241 3
c15 -23 12 -45 -6 -45 -12 0 -41 56 -33 64 12 11 22 6 39 -19z m-210 -195 c15
-42 18 -179 4 -215 -5 -14 -11 -70 -13 -124 -4 -97 -14 -136 -68 -258 -20 -46
-11 -57 23 -26 16 14 18 14 18 1 0 -17 -19 -36 -53 -53 -12 -6 -39 -42 -60
-80 -21 -39 -51 -83 -66 -100 -16 -16 -54 -72 -85 -122 -32 -51 -66 -98 -77
-103 -10 -6 -19 -18 -19 -26 0 -8 5 -12 10 -9 6 3 15 3 21 0 18 -12 -28 -51
-92 -80 -43 -19 -59 -31 -59 -46 0 -21 1 -20 -148 -141 -159 -128 -231 -180
-243 -176 -6 2 15 23 47 47 33 24 75 59 94 77 70 64 126 111 173 144 26 19 50
44 53 57 3 12 16 25 27 29 12 4 41 20 65 36 35 24 41 32 31 44 -9 11 -1 28 38
81 156 214 215 310 266 435 39 94 48 130 78 313 21 132 21 221 -1 295 -13 44
-13 42 7 38 9 -2 22 -19 29 -38z m-49 -35 l6 -38 -31 23 c-37 28 -37 28 -15
52 21 23 32 13 40 -37z m163 -4 c0 -6 -4 -13 -10 -16 -5 -3 -10 1 -10 9 0 9 5
16 10 16 6 0 10 -4 10 -9z m-204 -27 c19 -15 34 -35 34 -46 0 -50 -101 -193
-200 -281 -76 -68 -79 -66 -55 36 21 91 77 222 95 222 28 0 24 -63 -6 -106
-15 -22 -25 -42 -22 -45 8 -7 67 63 86 103 15 32 15 36 -3 69 l-19 36 24 19
c14 10 26 19 28 19 2 0 19 -12 38 -26z m-2647 -20 c12 -15 21 -34 21 -43 0
-20 59 -116 66 -108 3 2 -3 21 -12 41 -10 19 -14 39 -10 43 4 4 48 -34 99 -85
l92 -92 -40 -34 -40 -34 -40 32 c-82 67 -205 255 -191 291 8 23 32 18 55 -11z
m2821 -42 c11 -59 10 -76 -3 -113 l-15 -44 -1 60 c-1 33 -4 84 -7 113 -10 78
12 65 26 -16z m190 47 c0 -11 -4 -17 -10 -14 -5 3 -10 13 -10 21 0 8 5 14 10
14 6 0 10 -9 10 -21z m55 -149 c31 -61 31 -80 0 -103 -28 -20 -28 -20 -50 53
l-8 25 21 -25 c16 -19 23 -22 33 -13 9 9 7 22 -10 57 -22 47 -24 56 -16 56 2
0 16 -22 30 -50z m-55 7 c0 -18 -2 -19 -10 -7 -13 20 -13 43 0 35 6 -3 10 -16
10 -28z m-160 -135 c0 -143 -37 -300 -105 -444 -86 -183 -195 -350 -195 -300
0 14 31 74 62 119 15 23 28 46 28 51 0 5 9 21 20 35 32 40 118 239 134 308 8
35 20 115 26 176 12 112 30 144 30 55z m-3125 -16 c20 -19 55 -43 79 -54 38
-18 46 -29 76 -96 38 -89 35 -111 -14 -102 -126 24 -175 56 -188 124 -10 55
-9 162 1 162 5 0 26 -15 46 -34z m545 6 c0 -18 -57 -59 -67 -48 -7 7 46 66 59
66 4 0 8 -8 8 -18z m2374 -129 c-16 -86 -48 -136 -148 -228 -90 -84 -176 -145
-202 -145 -13 0 -24 57 -16 78 2 7 17 19 32 27 62 32 228 184 297 273 33 42
46 41 37 -5z m420 -74 c-1 -92 -5 -118 -38 -219 -21 -63 -43 -139 -50 -168 -6
-29 -14 -51 -17 -48 -9 10 17 138 52 251 29 94 34 124 33 203 -1 63 2 91 10
89 7 -3 11 -40 10 -108z m-3511 38 c21 -9 44 -17 52 -17 7 0 27 -11 43 -25 23
-19 35 -44 51 -105 12 -44 19 -84 16 -89 -6 -10 -113 16 -184 45 -46 18 -47
21 -56 131 -8 91 -2 112 23 91 10 -8 34 -21 55 -31z m3613 -12 c4 -14 2 -69
-2 -122 l-9 -97 -47 -15 c-27 -8 -51 -11 -54 -8 -4 4 0 30 10 58 9 29 19 77
22 108 5 44 12 61 33 78 33 29 39 29 47 -2z m-276 -30 c0 -19 -4 -35 -10 -35
-5 0 -10 16 -10 35 0 19 5 35 10 35 6 0 10 -16 10 -35z m50 13 c0 -13 -9 -59
-19 -103 -14 -57 -16 -84 -9 -93 17 -20 2 -77 -41 -150 -23 -37 -41 -75 -41
-83 0 -14 -47 -110 -86 -175 -23 -38 -129 -170 -145 -179 -28 -18 -16 10 34
77 80 108 133 196 169 279 18 41 50 101 71 133 36 53 38 60 24 71 -13 9 -16
26 -14 78 2 37 8 72 15 79 7 7 12 22 12 34 0 29 10 54 21 54 5 0 9 -10 9 -22z
m-82 -75 c-2 -26 -8 -38 -18 -38 -14 0 -17 30 -5 63 10 28 26 10 23 -25z
m-3525 -47 c34 -19 78 -39 98 -45 38 -12 46 -24 88 -140 11 -30 18 -58 14 -64
-8 -14 -117 -1 -189 23 -51 17 -62 25 -72 53 -12 34 -17 207 -6 207 3 0 33
-15 67 -34z m4035 -122 l3 -110 -83 -26 c-46 -15 -100 -29 -122 -33 -37 -6
-38 -5 -32 17 4 13 16 60 28 105 l22 82 45 17 c25 9 62 28 81 41 19 13 39 22
45 20 6 -2 11 -51 13 -113z m-1227 6 c10 -6 19 -16 19 -22 0 -7 -64 -75 -142
-152 -101 -100 -144 -136 -146 -124 -2 9 3 27 11 40 8 13 18 42 22 66 19 115
161 231 236 192z m-2961 -71 c14 -9 37 -19 52 -23 22 -5 30 -15 39 -49 6 -23
20 -66 30 -95 10 -30 17 -57 14 -62 -5 -8 -110 10 -185 32 l-45 14 -6 59 c-9
82 -10 180 -3 188 4 4 23 -6 43 -21 20 -15 47 -35 61 -43z m4402 -94 c4 -61 4
-113 -1 -118 -13 -13 -182 -67 -208 -67 -28 0 -28 -1 -3 78 11 35 20 79 20 97
0 40 5 45 85 91 94 53 99 50 107 -81z m-4669 -19 c18 -13 60 -38 94 -55 57
-28 63 -34 68 -68 3 -21 9 -58 14 -83 5 -24 7 -48 5 -52 -5 -7 -99 26 -165 57
-39 19 -54 55 -63 157 -6 76 -1 81 47 44z m4867 -28 c0 -7 -5 -57 -12 -110
l-12 -97 -68 -31 c-37 -16 -78 -30 -89 -30 -18 0 -20 4 -14 28 5 15 13 55 19
89 11 62 11 63 71 98 33 20 64 43 68 51 10 17 37 19 37 2z m-824 -21 c9 3 14
-2 14 -16 0 -16 -6 -20 -22 -18 -17 1 -22 -3 -20 -16 5 -27 -17 -195 -30 -241
-10 -32 -20 -42 -55 -58 -27 -12 -52 -17 -66 -12 -12 4 -24 5 -25 3 -2 -2 -9
9 -16 25 l-12 29 -15 -24 c-8 -13 -23 -45 -33 -71 -19 -53 -19 -52 -58 -62
-36 -8 -36 5 0 25 18 10 35 33 47 65 20 55 51 104 66 104 5 0 12 -14 16 -30 3
-17 11 -29 17 -27 6 2 19 0 29 -5 57 -29 95 43 107 207 9 120 15 144 32 127 6
-6 17 -8 24 -5z m-4208 -90 c20 -13 53 -29 72 -37 50 -19 57 -26 65 -68 4 -20
17 -62 30 -94 13 -31 21 -59 19 -61 -7 -7 -115 28 -171 55 l-48 23 -11 95
c-10 88 -10 110 2 110 2 0 21 -10 42 -23z m5212 -127 c0 -127 10 -114 -131
-160 -95 -31 -120 -30 -101 7 6 10 18 52 28 93 15 62 23 76 47 89 16 9 52 30
80 47 29 18 58 32 65 33 9 1 12 -27 12 -109z m-5449 10 c9 -48 43 -123 80
-175 27 -38 64 -69 167 -141 14 -10 11 -14 -20 -27 -20 -8 -71 -47 -112 -86
-97 -89 -135 -103 -200 -71 -59 28 -121 98 -157 177 -51 111 -39 149 83 251
46 38 92 79 102 91 27 30 49 23 57 -19z m99 -35 c34 -19 66 -35 70 -35 14 0
19 -12 44 -109 13 -50 20 -94 16 -96 -13 -8 -107 72 -137 117 -48 71 -80 158
-58 158 2 0 31 -16 65 -35z m5598 -12 c21 -21 64 -54 96 -73 129 -77 141 -182
35 -314 -62 -76 -111 -106 -174 -106 -48 0 -54 4 -155 85 -58 46 -106 88 -108
93 -1 5 8 13 22 20 39 18 95 72 136 133 41 59 90 161 90 185 0 24 19 16 58
-23z m-88 -9 c0 -3 -15 -35 -32 -72 -33 -67 -140 -193 -153 -180 -4 4 0 26 9
50 8 24 20 62 26 85 9 35 18 45 64 72 30 17 57 35 61 41 7 11 25 14 25 4z
m-1578 -144 l-20 -41 21 -9 c20 -7 17 -10 -26 -29 -27 -12 -53 -21 -58 -21 -9
0 48 94 80 133 23 28 25 11 3 -33z m-732 -157 c-1 -10 -26 -36 -57 -58 -31
-22 -63 -47 -72 -56 -9 -9 -47 -34 -84 -57 -59 -35 -66 -42 -50 -51 17 -10 16
-12 -7 -31 -14 -11 -33 -20 -44 -20 -16 0 -17 2 -5 16 8 9 13 26 11 38 -2 16
8 27 45 46 55 29 187 126 222 164 29 30 41 33 41 9z m106 -160 c7 -10 14 -24
14 -30 0 -19 -27 -15 -34 5 -3 9 -9 23 -12 30 -9 18 17 14 32 -5z m-76 -42 c0
-5 -11 -22 -24 -38 -13 -15 -31 -43 -40 -60 l-17 -33 -167 0 c-118 0 -185 -5
-227 -15 -84 -22 -90 -12 -15 24 65 31 96 39 85 22 -9 -15 15 -24 30 -11 10 8
55 11 148 9 l134 -4 24 30 c14 17 30 42 37 58 11 26 32 38 32 18z"/>
<path d="M5125 7569 c-199 -23 -268 -42 -424 -115 -88 -41 -93 -45 -75 -59 19
-15 19 -15 -2 -33 -12 -10 -24 -34 -28 -53 -8 -47 -50 -88 -74 -73 -9 6 -18
21 -20 33 -2 11 -5 21 -7 21 -1 0 -21 -18 -43 -40 -52 -52 -66 -52 -59 0 4 32
2 38 -8 32 -46 -25 -201 -172 -320 -302 -86 -94 -173 -275 -200 -413 -8 -40
-21 -102 -29 -138 -26 -109 -30 -249 -12 -401 9 -75 16 -142 16 -148 0 -26 18
-5 34 40 25 71 41 76 33 11 -7 -57 3 -60 29 -9 25 48 33 17 14 -55 -19 -74
-39 -114 -91 -180 -28 -34 -37 -55 -34 -70 4 -13 -6 -52 -23 -92 -15 -39 -29
-85 -30 -103 -3 -48 20 -119 71 -214 37 -69 43 -87 34 -105 -8 -18 -5 -30 15
-60 32 -49 39 -71 28 -78 -17 -10 -12 -291 5 -325 8 -16 46 -48 90 -75 76 -48
202 -171 233 -229 l16 -31 6 35 c5 35 6 35 19 12 18 -34 25 -20 11 23 -9 27
-9 40 -1 48 12 12 41 -47 41 -86 0 -13 7 -32 15 -43 14 -19 14 -18 15 4 0 12
4 22 9 22 12 0 19 -22 26 -79 3 -25 12 -67 20 -94 8 -27 12 -54 9 -59 -11 -18
-31 12 -43 64 -12 56 -26 86 -35 77 -3 -3 -1 -21 5 -40 5 -19 21 -84 34 -146
28 -129 37 -148 105 -223 48 -54 50 -54 50 -27 0 18 4 27 13 25 39 -13 103
-215 118 -373 14 -144 26 -182 73 -229 33 -33 41 -37 44 -23 5 25 19 21 39
-10 9 -16 19 -30 21 -33 1 -2 7 2 12 9 7 12 16 10 54 -7 38 -18 64 -22 154
-22 79 0 125 -5 168 -19 214 -68 395 -47 451 54 16 29 19 43 11 52 -11 14 8
44 95 145 42 48 48 62 43 84 -5 17 -2 40 7 58 8 17 22 52 30 78 9 26 34 72 57
102 72 95 142 136 232 136 57 0 69 -5 84 -33 9 -15 13 -12 32 24 12 22 22 51
22 63 0 12 13 37 29 56 22 27 29 49 34 100 4 36 22 129 40 208 19 78 31 142
28 142 -14 -2 -129 -155 -158 -212 -35 -68 -59 -89 -47 -41 12 46 74 175 102
213 16 21 29 53 32 80 3 31 10 45 20 45 16 0 19 -34 6 -72 -16 -50 12 -19 44
47 19 39 38 70 43 70 9 0 6 -39 -7 -75 -6 -16 -4 -15 11 4 26 35 83 91 132
131 73 60 101 125 103 240 1 52 -17 162 -33 199 -20 47 -27 175 -9 186 5 3 16
-8 25 -25 9 -17 20 -28 25 -25 11 7 6 35 -21 113 -18 55 -16 126 5 119 6 -1
22 -25 36 -53 l25 -49 3 43 c2 23 7 42 13 42 5 0 9 -5 9 -12 0 -47 44 87 74
227 46 213 59 336 52 500 -10 246 -28 325 -126 563 -6 13 -10 33 -10 45 0 20
-21 61 -76 154 -27 45 -10 53 31 13 38 -37 46 -33 17 8 -11 15 -34 55 -52 89
-21 41 -63 92 -119 147 -100 98 -144 133 -261 203 -233 140 -351 184 -645 237
-253 47 -390 55 -560 35z m-207 -711 c5 -7 18 -50 28 -96 l18 -83 23 38 c15
25 23 54 23 86 0 34 4 47 15 47 15 0 29 -40 41 -118 4 -23 10 -45 14 -47 9 -5
60 105 60 129 0 10 -5 26 -11 37 -9 18 -8 20 13 17 46 -6 31 -75 -41 -185 -18
-29 -37 -53 -42 -53 -4 0 -13 27 -20 61 -13 66 -13 66 -53 -4 l-28 -48 36 7
c34 6 37 4 50 -27 8 -19 17 -54 21 -79 12 -76 21 -81 45 -26 15 33 20 60 17
82 -5 29 -3 34 13 34 16 0 22 -14 36 -80 10 -44 20 -80 24 -80 10 0 50 92 52
120 1 14 -2 35 -6 48 -8 25 2 28 29 8 17 -12 18 -18 7 -52 -17 -56 -85 -168
-103 -172 -13 -2 -18 9 -24 53 -3 30 -9 55 -13 55 -4 0 -22 -28 -40 -61 -19
-34 -38 -57 -42 -53 -5 5 -18 52 -29 103 -12 52 -25 99 -30 104 -4 4 -22 9
-38 9 -28 1 -30 3 -41 67 -21 121 -30 141 -60 142 l-27 1 30 13 c38 18 40 18
53 3z m1888 -763 c-3 -49 -12 -112 -21 -139 -8 -27 -12 -52 -9 -55 5 -6 43 38
44 51 0 4 5 19 10 34 8 20 14 24 22 16 8 -8 3 -31 -17 -86 -20 -56 -26 -84
-21 -113 19 -111 20 -109 -19 -185 -21 -40 -42 -84 -46 -98 -12 -33 -5 51 11
140 6 36 9 83 5 104 -10 65 -117 201 -187 237 -39 20 -50 39 -23 39 8 0 44
-15 80 -32 77 -38 89 -35 123 36 17 35 24 66 24 114 0 60 2 64 15 47 11 -16
13 -41 9 -110z m-1706 -291 c0 -3 -7 -31 -16 -62 -15 -51 -18 -54 -30 -37 -20
27 -17 62 6 85 19 19 40 27 40 14z m-94 -104 c1 -28 14 -59 43 -105 22 -37 41
-68 41 -71 0 -11 -58 27 -87 58 -55 57 -60 95 -20 146 16 21 22 14 23 -28z
m1509 26 c68 -29 125 -163 132 -316 3 -58 -1 -142 -11 -215 -14 -104 -14 -121
-2 -134 12 -12 13 -18 2 -40 -7 -14 -21 -59 -30 -99 -25 -104 -77 -210 -128
-258 -73 -70 -95 -77 -252 -80 -134 -3 -142 -2 -240 31 -247 82 -575 185 -616
195 -25 5 -97 13 -160 16 -183 10 -294 -16 -504 -117 -48 -23 -88 -36 -100
-33 -13 3 -58 -12 -111 -37 -115 -53 -254 -99 -300 -99 -66 0 -139 55 -118 89
8 13 7 23 -8 42 -61 77 -104 196 -139 384 -18 98 -21 139 -16 226 4 58 13 127
21 154 8 26 15 52 15 57 0 18 -21 -4 -35 -38 -26 -64 -73 -55 -61 11 4 20 20
50 35 67 42 47 109 50 226 8 147 -52 234 -76 366 -103 312 -64 714 -78 969
-33 270 47 601 172 616 233 6 24 26 35 48 27 7 -3 42 4 77 16 175 60 261 72
324 46z m-1598 -1018 c-2 -7 -13 -36 -22 -64 l-19 -51 26 -69 c15 -38 29 -77
33 -86 4 -10 3 -18 -3 -18 -6 0 -31 39 -57 87 -51 96 -51 93 0 172 23 38 54
58 42 29z m95 -235 c39 -45 59 -103 56 -166 -4 -78 -20 -75 -34 6 -6 34 -20
86 -32 115 -12 29 -22 55 -22 57 0 11 18 4 32 -12z m121 -100 c27 -60 32 -81
35 -170 3 -71 1 -103 -7 -103 -6 0 -11 10 -11 23 0 12 -7 50 -16 82 -9 33 -20
87 -25 120 -5 33 -11 72 -15 88 -11 47 6 30 39 -40z m1041 27 c29 -35 44 -80
52 -160 5 -44 1 -74 -20 -142 -28 -92 -43 -113 -75 -103 -35 11 -59 57 -71
135 -22 146 -8 238 44 282 29 24 41 22 70 -12z m-241 -17 c62 -8 96 -81 73
-157 -13 -42 -12 -45 12 -69 22 -22 25 -33 25 -104 0 -80 -9 -118 -62 -258
-48 -125 -86 -143 -157 -74 l-43 42 -25 -29 c-25 -29 -25 -29 -5 -44 12 -9 26
-40 34 -75 12 -55 12 -62 -6 -97 -11 -21 -26 -38 -33 -38 -8 0 -21 -3 -30 -6
-9 -3 -26 5 -42 21 -25 25 -26 30 -19 93 4 37 13 74 21 83 12 13 9 17 -21 28
-19 7 -35 17 -35 22 0 5 -6 9 -14 9 -16 0 -26 -21 -26 -55 0 -29 -36 -65 -65
-65 -12 0 -33 12 -47 28 -37 40 -51 93 -44 165 6 48 3 70 -10 96 -33 66 2 235
63 302 43 48 76 58 103 34 20 -18 20 -17 20 25 0 36 6 48 36 76 19 19 45 34
57 34 31 0 67 -27 67 -50 0 -10 5 -22 10 -25 6 -3 10 3 10 14 0 11 16 36 35
57 28 29 39 35 57 29 13 -4 40 -10 61 -12z"/>
<path d="M6365 5703 c-52 -7 -135 -33 -135 -43 0 -5 19 -2 43 6 23 8 76 20
117 25 93 13 126 -1 163 -70 38 -72 49 -117 57 -231 l7 -105 1 95 c2 105 -11
168 -52 247 -38 76 -80 92 -201 76z"/>
<path d="M6175 5644 c-16 -7 -40 -11 -53 -9 -15 4 -25 0 -29 -12 -4 -10 -14
-24 -22 -31 -31 -24 -217 -111 -286 -132 -38 -13 -74 -26 -80 -31 -10 -10 55
8 145 39 89 32 210 94 240 124 16 15 38 28 50 28 21 0 80 26 80 35 0 8 -12 5
-45 -11z"/>
<path d="M6425 5558 c-16 -6 -82 -31 -145 -56 -63 -25 -194 -73 -290 -107 -96
-35 -240 -91 -320 -125 -80 -34 -165 -64 -190 -67 -58 -6 -147 26 -195 72 -20
18 -37 30 -39 26 -8 -13 14 -50 33 -56 15 -5 21 -15 21 -38 1 -29 2 -30 14
-14 13 16 19 17 56 6 41 -12 41 -13 36 -51 -5 -35 -1 -43 44 -93 32 -35 50
-64 50 -80 0 -25 49 -110 58 -101 2 3 -5 17 -15 33 -26 36 -39 123 -19 123 19
0 72 -56 91 -96 9 -19 28 -42 42 -51 14 -10 38 -30 53 -45 25 -25 117 -58 104
-37 -3 5 -14 9 -26 9 -22 0 -145 116 -135 127 4 3 60 -15 124 -40 242 -95 309
-111 364 -83 17 9 51 16 73 16 32 1 50 8 81 35 50 43 32 46 -21 4 -30 -24 -45
-29 -67 -25 -17 4 -43 -1 -63 -10 -38 -18 -112 -14 -171 11 -46 19 -41 35 10
35 50 0 151 23 224 50 118 44 212 124 243 208 24 65 25 103 3 208 -25 124 -5
150 46 59 22 -39 31 -68 31 -102 1 -38 3 -44 11 -30 17 29 -11 131 -59 214
-28 50 -22 67 21 57 28 -6 30 -5 18 10 -15 18 -51 20 -96 4z m-938 -410 c0
-18 4 -45 8 -60 9 -35 -9 -37 -42 -6 -15 14 -23 33 -23 53 0 37 6 45 35 45 17
0 22 -6 22 -32z"/>
<path d="M3916 5524 c-24 -23 -19 -27 9 -8 14 9 25 18 25 20 0 10 -20 3 -34
-12z"/>
<path d="M3982 5487 c-24 -56 -47 -175 -39 -204 3 -11 5 -7 6 11 1 39 27 136
51 192 16 37 24 45 38 39 129 -54 473 -150 515 -143 13 3 -1 9 -38 17 -118 24
-324 83 -395 112 -101 41 -110 39 -138 -24z"/>
<path d="M3887 5483 c-4 -3 -7 -13 -7 -22 1 -13 3 -13 11 2 11 19 8 33 -4 20z"/>
<path d="M4065 5410 c-28 -11 -52 -40 -61 -74 -9 -37 9 -28 26 14 14 34 52 49
76 29 21 -17 12 -48 -36 -118 -39 -57 -40 -60 -34 -122 7 -67 18 -99 34 -99 6
0 6 10 0 26 -6 14 -10 53 -10 88 0 53 4 66 28 96 49 58 72 25 72 -102 0 -32 6
-73 14 -91 16 -39 138 -157 161 -157 22 0 115 -40 115 -50 0 -15 -60 -32 -94
-26 -72 14 -147 52 -167 85 -26 44 -38 31 -13 -14 12 -24 30 -39 54 -46 19 -7
40 -16 47 -21 20 -16 119 -21 174 -8 30 6 83 21 118 31 35 10 75 19 90 19 14
0 73 23 130 50 57 28 109 50 116 50 13 0 25 -43 25 -91 0 -21 -7 -32 -27 -43
-33 -18 -22 -20 30 -5 25 7 35 14 30 22 -5 7 -8 32 -9 57 0 25 -4 57 -8 72 -7
24 -2 34 42 80 41 42 53 51 63 41 7 -7 20 -13 28 -13 11 0 8 8 -10 28 -34 37
-68 137 -51 154 14 14 16 28 4 28 -13 0 -44 -60 -38 -75 11 -28 -22 -38 -107
-32 -109 8 -177 26 -392 104 -282 103 -307 111 -355 116 -25 3 -54 2 -65 -3z"/>
<path d="M5648 5413 c6 -2 18 -2 25 0 6 3 1 5 -13 5 -14 0 -19 -2 -12 -5z"/>
<path d="M5565 5399 c-16 -5 -59 -14 -95 -20 -130 -23 -151 -29 -87 -23 104 8
309 55 232 53 -11 0 -33 -5 -50 -10z"/>
<path d="M4620 5369 c61 -12 279 -29 349 -28 33 1 -17 9 -119 20 -96 10 -197
17 -225 17 l-50 0 45 -9z"/>
<path d="M5150 5351 l-65 -6 50 -8 c28 -4 79 -5 115 -2 66 6 94 15 48 15 -14
0 -38 2 -54 4 -16 2 -58 0 -94 -3z"/>
<path d="M5048 5343 c7 -3 16 -2 19 1 4 3 -2 6 -13 5 -11 0 -14 -3 -6 -6z"/>
<path d="M3944 5175 c5 -129 49 -309 102 -415 30 -61 109 -150 134 -150 5 0
10 -7 10 -15 0 -18 -2 -19 -45 -1 -40 17 -48 6 -10 -14 53 -28 181 4 368 93
80 38 110 48 116 39 6 -10 33 -1 105 34 53 26 95 48 93 50 -4 4 -100 -32 -140
-53 -27 -14 -29 -14 -24 1 4 9 4 16 2 16 -3 0 -60 -27 -127 -59 -68 -32 -158
-71 -202 -87 l-79 -28 -42 23 c-130 69 -203 231 -250 559 l-14 97 3 -90z"/>
<path d="M4112 5208 c-15 -15 -15 -40 1 -61 10 -15 12 -11 12 28 0 25 0 45 0
45 -1 0 -6 -5 -13 -12z"/>
<path d="M6585 5133 c-4 -27 -8 -73 -10 -103 -3 -70 -37 -194 -69 -258 -24
-47 -106 -131 -130 -133 -6 0 -38 -7 -71 -15 l-60 -14 67 5 c128 8 208 94 257
276 11 41 25 91 31 113 8 27 8 42 1 49 -6 6 -8 33 -4 69 7 70 -1 78 -12 11z"/>
<path d="M5298 5126 c-53 -13 -47 -22 14 -21 58 0 64 -6 89 -93 7 -23 18 -47
26 -53 17 -15 17 -5 -1 29 -7 15 -16 43 -20 63 -6 32 -33 68 -61 81 -5 2 -27
0 -47 -6z"/>
<path d="M4096 5091 c-5 -8 -2 -20 8 -29 17 -17 19 -9 7 22 -6 15 -10 16 -15
7z"/>
<path d="M6473 5047 c-12 -23 -27 -64 -34 -90 -9 -38 -21 -55 -58 -85 -25 -20
-48 -39 -51 -42 -3 -3 -20 -18 -38 -33 -22 -18 -28 -27 -18 -27 9 0 35 17 59
38 23 21 57 47 75 58 19 11 35 29 38 44 2 14 15 58 29 99 14 41 24 75 22 77
-1 2 -12 -16 -24 -39z"/>
<path d="M5245 5044 c-16 -17 -25 -39 -25 -59 0 -18 -6 -38 -14 -44 -20 -17
-71 -10 -72 9 -1 33 -16 56 -49 78 -41 26 -77 28 -96 6 -11 -13 -9 -14 13 -9
24 6 26 4 30 -37 3 -24 0 -56 -7 -73 -27 -65 -36 -61 119 -60 165 0 231 -11
411 -72 71 -23 136 -43 145 -43 22 1 -48 27 -180 67 -142 43 -145 44 -145 77
-1 14 -6 31 -13 38 -7 7 -12 29 -12 49 0 40 -39 99 -66 99 -8 0 -26 -12 -39
-26z"/>
<path d="M4146 5015 c4 -8 10 -15 15 -15 4 0 6 7 3 15 -4 8 -10 15 -15 15 -4
0 -6 -7 -3 -15z"/>
<path d="M4033 5006 c3 -8 11 -33 17 -54 6 -23 17 -42 28 -44 14 -4 13 4 -11
54 -16 32 -31 58 -34 58 -3 0 -3 -6 0 -14z"/>
<path d="M5456 4915 c4 -8 8 -15 10 -15 2 0 4 7 4 15 0 8 -4 15 -10 15 -5 0
-7 -7 -4 -15z"/>
<path d="M4120 4887 c0 -15 59 -123 76 -138 11 -9 52 -16 123 -19 100 -5 108
-4 144 19 20 13 37 28 37 33 0 6 -17 0 -37 -12 -31 -18 -53 -22 -120 -22 -95
0 -134 17 -170 73 -33 51 -52 75 -53 66z"/>
<path d="M6455 4870 c-3 -5 -2 -10 4 -10 5 0 13 5 16 10 3 6 2 10 -4 10 -5 0
-13 -4 -16 -10z"/>
<path d="M4710 4846 c-23 -15 -45 -22 -70 -19 -21 1 -51 -5 -75 -17 -22 -11
-31 -18 -20 -14 11 3 49 10 85 14 54 6 140 41 140 56 0 10 -28 1 -60 -20z"/>
<path d="M6396 4814 c-11 -7 -16 -17 -13 -21 4 -4 15 1 24 10 22 21 14 30 -11
11z"/>
<path d="M6040 4760 c8 -5 22 -10 30 -10 13 0 13 1 0 10 -8 5 -22 10 -30 10
-13 0 -13 -1 0 -10z"/>
<path d="M6213 4763 c9 -2 23 -2 30 0 6 3 -1 5 -18 5 -16 0 -22 -2 -12 -5z"/>
<path d="M6118 4743 c12 -2 30 -2 40 0 9 3 -1 5 -23 4 -22 0 -30 -2 -17 -4z"/>
<path d="M5798 4703 c7 -3 16 -2 19 1 4 3 -2 6 -13 5 -11 0 -14 -3 -6 -6z"/>
<path d="M5850 4691 c0 -7 82 -32 88 -26 2 1 -17 10 -42 18 -26 9 -46 12 -46
8z"/>
<path d="M6050 4669 c0 -4 5 -11 10 -14 15 -9 1 -27 -17 -21 -8 3 -11 1 -8 -4
9 -15 76 -24 84 -12 5 8 18 9 45 1 36 -10 65 -5 35 5 -8 3 -44 16 -81 29 -38
14 -68 21 -68 16z"/>
<path d="M5988 4643 c7 -3 16 -2 19 1 4 3 -2 6 -13 5 -11 0 -14 -3 -6 -6z"/>
<path d="M6103 4373 c-22 -34 -29 -141 -15 -241 10 -71 31 -112 56 -112 13 0
46 87 45 116 0 14 -4 11 -11 -8 -9 -27 -40 -38 -52 -20 -3 5 -6 45 -8 90 -3
73 -1 84 19 104 22 22 23 22 39 3 15 -19 15 -18 10 12 -7 40 -34 83 -52 83 -7
0 -21 -12 -31 -27z m53 -8 c6 -15 -49 -79 -59 -69 -5 6 7 56 18 74 9 15 35 12
41 -5z m-46 -176 c0 -5 -4 -9 -10 -9 -5 0 -10 7 -10 16 0 8 5 12 10 9 6 -3 10
-10 10 -16z m48 -114 c2 -2 -2 -13 -9 -26 -11 -22 -12 -22 -25 -4 -22 30 -18
48 9 39 12 -3 23 -8 25 -9z"/>
<path d="M6191 4215 c0 -43 3 -54 9 -40 12 27 12 67 0 85 -7 11 -10 -3 -9 -45z"/>
<path d="M5825 4343 c-19 -29 -22 -90 -5 -107 7 -7 10 -3 10 12 0 12 4 22 10
22 18 0 27 -35 28 -112 2 -66 -1 -81 -18 -98 -49 -49 -74 -10 -36 55 19 31 25
52 20 70 -3 14 -10 22 -15 20 -4 -3 -6 -12 -2 -20 6 -17 -15 -75 -27 -75 -13
0 -40 85 -40 126 0 97 -39 133 -92 86 -29 -27 -30 -30 -30 -113 1 -87 -9 -122
-27 -104 -6 6 -13 28 -16 50 -2 21 -12 46 -20 54 -14 14 -18 14 -43 1 -39 -22
-71 -94 -84 -193 -10 -75 -10 -92 4 -121 12 -25 15 -52 11 -112 -4 -68 -1 -84
16 -112 36 -57 73 -52 85 11 8 43 38 97 53 97 7 0 13 -6 13 -13 0 -23 35 -47
66 -47 21 0 37 10 60 37 l32 38 50 -48 c56 -52 55 -51 82 -37 29 15 55 105 27
94 -7 -2 -23 10 -36 27 -22 29 -23 38 -17 108 4 41 12 81 17 88 15 17 77 36
95 29 20 -8 10 -101 -17 -165 -24 -56 -24 -77 0 -31 47 89 54 258 11 292 -21
17 -22 21 -10 64 21 74 -17 166 -55 134 -13 -10 -19 -10 -33 4 -26 23 -47 20
-67 -11z m95 -19 c7 9 19 16 27 16 11 0 7 -9 -11 -31 -14 -17 -26 -38 -26 -48
0 -32 -12 -30 -46 6 -39 41 -39 41 -17 72 l16 24 22 -27 c19 -24 23 -25 35
-12z m-202 -6 c15 -15 15 -41 1 -55 -9 -9 -19 -6 -40 9 -23 17 -26 25 -18 40
11 21 39 24 57 6z m252 -49 c0 -18 -5 -50 -12 -72 -10 -32 -10 -41 0 -45 21
-7 42 -32 42 -50 0 -13 -14 -21 -47 -29 -27 -6 -51 -9 -55 -6 -5 2 -8 32 -8
67 0 49 4 67 19 80 10 10 22 33 25 52 9 44 36 47 36 3z m-293 -21 c16 -18 22
-41 26 -112 5 -84 4 -90 -19 -112 -33 -34 -111 -35 -118 -1 -13 63 -15 87 -6
92 12 8 40 -35 40 -62 0 -13 4 -23 9 -23 13 0 23 53 28 153 2 48 8 87 12 87 4
0 17 -10 28 -22z m66 -55 c3 -21 11 -64 18 -96 11 -50 10 -60 -2 -68 -30 -19
-41 -10 -37 29 3 20 1 55 -4 76 -9 41 -2 96 12 96 4 0 10 -17 13 -37z m-175
-29 c4 -33 -11 -24 -23 15 -5 17 -4 22 6 19 8 -3 15 -18 17 -34z m-34 -1 c6
-22 11 -162 5 -166 -14 -10 -62 -27 -76 -27 -13 0 -15 9 -10 59 9 101 64 191
81 134z m325 -147 c15 -18 3 -189 -15 -214 -11 -14 -16 -15 -33 -5 -11 7 -33
10 -50 7 -24 -5 -30 -2 -36 15 -3 12 -3 31 1 44 8 25 7 79 -2 120 -5 26 -4 28
18 25 21 -3 24 -9 28 -68 5 -55 7 -61 14 -37 5 16 6 46 3 68 -4 30 -1 41 11
49 24 14 48 12 61 -4z m-155 -33 c19 -61 4 -158 -29 -199 -26 -30 -27 -30 -54
16 -8 13 -12 12 -28 -3 -30 -26 -46 -22 -38 11 4 15 6 62 6 105 l-1 78 33 -6
c17 -3 46 -1 62 4 42 13 43 13 49 -6z m-154 -77 c0 -51 -6 -75 -32 -125 -45
-88 -62 -82 -53 20 6 68 5 83 -10 99 -23 25 -16 41 26 56 65 24 69 21 69 -50z
m357 -114 c16 -21 18 -32 10 -50 -12 -27 -27 -28 -55 -1 -22 20 -22 21 -5 50
9 16 20 29 23 29 4 0 15 -12 27 -28z m-179 -20 c2 -15 -4 -25 -22 -34 -35 -15
-40 -7 -19 31 20 34 36 36 41 3z m-176 -14 c2 -6 -1 -32 -8 -57 -13 -51 -36
-64 -54 -31 -10 18 -8 26 8 43 10 12 22 30 25 40 7 19 23 23 29 5z"/>
<path d="M5783 4215 c0 -22 2 -30 4 -17 2 12 2 30 0 40 -3 9 -5 -1 -4 -23z"/>
<path d="M5706 3661 c-10 -11 -19 -45 -23 -84 -6 -66 -6 -66 22 -73 23 -6 32
-2 47 16 10 12 18 30 18 39 0 11 -4 8 -13 -8 -18 -35 -45 -50 -57 -31 -9 14
-5 79 7 123 7 26 33 21 33 -7 0 -14 5 -28 10 -31 11 -7 13 9 4 42 -8 29 -29
35 -48 14z"/>
<path d="M5967 3563 c-4 -3 -7 -11 -7 -17 0 -6 5 -5 12 2 6 6 9 14 7 17 -3 3
-9 2 -12 -2z"/>
<path d="M2482 3285 c4 -20 -6 -36 -48 -80 -29 -30 -57 -55 -63 -55 -23 0 -37
-39 -31 -88 6 -49 53 -131 79 -140 11 -4 10 1 -2 19 -17 23 -22 83 -11 113 8
20 33 20 55 0 16 -14 17 -13 16 20 -2 62 13 61 100 -4 96 -71 126 -79 53 -14
-54 49 -97 124 -120 207 -13 48 -36 67 -28 22z"/>
<path d="M8196 3219 c-21 -72 -44 -113 -94 -167 -32 -35 -70 -71 -86 -81 l-27
-18 43 -26 c24 -14 61 -44 83 -66 33 -35 45 -41 81 -41 49 0 80 21 123 87 42
64 39 86 -5 35 -19 -23 -44 -42 -53 -42 -20 0 -51 30 -51 50 0 7 7 22 17 32
19 21 3 24 -27 6 -15 -10 -25 -10 -38 -2 -26 17 -26 42 1 93 28 50 53 138 44
148 -4 3 -8 0 -11 -8z"/>
</g>
</svg>
